<?xml version="1.0" standalone="no"?>
<!DOCTYPE svg PUBLIC "-//W3C//DTD SVG 20010904//EN"
 "http://www.w3.org/TR/2001/REC-SVG-20010904/DTD/svg10.dtd">
<svg version="1.0" xmlns="http://www.w3.org/2000/svg"
 width="1024.000000pt" height="1024.000000pt" viewBox="0 0 1024.000000 1024.000000"
 preserveAspectRatio="xMidYMid meet">

<g transform="translate(0.000000,1024.000000) scale(0.100000,-0.100000)"
fill="#000000" stroke="none">
<path d="M5007 8876 c-95 -26 -161 -108 -174 -214 l-6 -51 -161 -92 c-88 -51
-204 -119 -256 -152 -108 -68 -336 -203 -485 -287 -55 -31 -175 -102 -267
-158 -159 -97 -198 -115 -198 -92 0 5 -19 20 -42 32 -57 30 -185 32 -238 4
-86 -45 -130 -115 -138 -217 -4 -56 -1 -75 20 -120 30 -66 75 -112 120 -125
l33 -10 1 -472 0 -472 -36 -10 c-50 -14 -85 -42 -118 -98 -24 -43 -27 -56 -27
-144 l0 -97 40 -56 c37 -52 79 -85 128 -99 16 -5 17 -42 17 -599 l0 -593 -35
-12 c-46 -17 -110 -92 -135 -158 -57 -154 12 -306 164 -363 68 -25 77 -25 144
-6 63 19 129 82 167 159 38 77 37 167 -2 238 -30 56 -81 102 -130 120 l-33 12
1 526 c1 289 4 558 8 598 l6 72 50 38 c72 54 106 126 106 219 0 111 -45 194
-127 233 l-44 22 0 466 0 467 45 24 c78 41 139 146 133 228 l-3 46 155 95 c85
52 200 120 255 150 55 30 145 83 200 117 55 34 234 142 398 241 165 98 310
186 324 194 23 14 26 13 56 -22 34 -40 97 -68 154 -68 47 0 94 22 131 61 29
31 33 33 63 22 33 -13 266 -144 544 -306 260 -152 552 -324 635 -375 41 -25
99 -58 128 -74 l52 -30 0 -59 c0 -90 54 -180 129 -214 l41 -18 0 -459 c0 -252
1 -461 1 -465 1 -5 -14 -16 -33 -25 -44 -21 -104 -89 -119 -136 -16 -48 -7
-199 14 -238 22 -43 75 -94 109 -106 l28 -10 0 -609 0 -609 -32 -13 c-47 -20
-115 -98 -129 -149 -17 -61 -15 -166 5 -211 37 -83 154 -157 249 -157 87 0
187 73 238 172 50 96 29 212 -51 290 -28 27 -66 52 -88 59 -33 9 -41 17 -46
42 -8 40 -8 721 1 973 l6 202 32 15 c54 26 103 75 130 132 60 127 6 291 -113
346 l-50 23 -6 91 c-5 72 -3 734 3 823 0 12 7 22 16 22 27 0 107 83 131 135
59 125 8 276 -110 331 -77 36 -166 34 -241 -6 l-58 -30 -101 51 c-55 29 -128
69 -161 89 -283 175 -638 384 -891 524 l-211 116 -7 55 c-15 132 -87 208 -208
220 -30 3 -74 -1 -101 -9z m137 -167 c26 -30 35 -85 20 -124 -9 -22 -57 -45
-95 -45 -45 0 -99 56 -99 103 0 53 47 97 105 97 36 0 48 -5 69 -31z m-1819
-963 c75 -32 98 -129 45 -186 -28 -30 -34 -32 -76 -27 -54 6 -101 45 -110 92
-9 47 18 103 58 120 42 18 42 18 83 1z m3618 -6 c83 -66 38 -200 -67 -200 -84
1 -134 93 -92 169 29 51 112 68 159 31z m-12 -1425 c37 -20 69 -70 69 -110 0
-44 -61 -105 -105 -105 -58 0 -115 65 -115 131 0 22 10 41 34 65 38 38 70 43
117 19z m-3594 -17 c34 -24 63 -72 63 -106 0 -32 -43 -85 -82 -100 -31 -12
-40 -12 -70 2 -43 21 -68 63 -68 116 0 34 6 48 34 76 41 41 75 44 123 12z m38
-1729 c29 -33 35 -46 35 -85 0 -40 -5 -51 -39 -85 -45 -45 -86 -51 -138 -19
-41 25 -55 51 -57 111 -1 40 4 52 29 79 31 32 75 49 112 42 13 -2 39 -22 58
-43z m3571 22 c41 -25 68 -83 60 -130 -11 -70 -102 -119 -164 -87 -50 26 -72
62 -72 119 0 44 5 56 32 84 26 27 40 33 72 33 23 0 55 -9 72 -19z"/>
<path d="M4985 8216 c-87 -41 -135 -115 -135 -210 l0 -42 -227 -131 c-126 -72
-273 -156 -328 -188 -55 -31 -141 -81 -190 -111 l-91 -54 -52 20 c-73 28 -118
25 -189 -10 -97 -49 -139 -122 -131 -230 5 -73 47 -146 100 -175 l37 -20 3
-445 c2 -245 2 -449 0 -455 -2 -5 -24 -23 -50 -40 -67 -43 -97 -106 -97 -205
0 -57 6 -85 22 -116 24 -45 85 -104 108 -104 13 0 15 -95 15 -728 l0 -728 -34
-12 c-43 -16 -112 -90 -138 -149 -28 -63 -28 -172 -1 -233 22 -50 82 -109 142
-140 121 -61 285 18 340 164 25 67 26 114 6 183 -17 59 -88 143 -135 163 l-30
12 0 709 0 709 21 0 c43 0 168 -64 294 -149 l130 -88 2 -414 c1 -228 0 -429
-3 -447 -3 -22 -12 -36 -28 -41 -74 -29 -127 -112 -134 -212 -4 -57 -1 -75 23
-128 98 -218 359 -214 467 7 29 61 22 171 -15 234 -29 50 -87 94 -135 104
l-32 7 0 408 0 408 28 -10 c15 -5 77 -36 137 -67 l110 -57 7 -61 c3 -34 13
-76 21 -95 21 -49 75 -105 127 -132 l45 -24 0 -738 0 -738 -33 -11 c-53 -18
-103 -65 -131 -125 -21 -46 -26 -70 -26 -136 0 -123 43 -188 159 -241 49 -22
68 -26 115 -21 72 6 146 43 194 96 58 64 71 97 71 181 1 63 -4 84 -27 127 -29
57 -78 102 -129 119 -24 8 -35 18 -39 40 -8 38 -11 1333 -3 1399 6 46 10 53
44 73 83 48 145 156 134 236 l-6 43 103 58 c57 33 118 66 134 75 17 9 42 24
58 34 l27 18 0 -403 c0 -222 -3 -414 -6 -426 -4 -16 -16 -23 -46 -28 -29 -5
-54 -20 -88 -54 -84 -80 -102 -208 -47 -317 46 -91 119 -134 227 -134 80 0
133 23 179 75 110 126 92 298 -41 388 l-42 28 3 472 c2 276 7 474 12 477 29
16 223 133 301 183 50 31 97 57 104 57 8 0 15 -18 18 -42 3 -24 7 -350 9 -725
l4 -681 -43 -17 c-89 -34 -144 -133 -144 -259 0 -78 31 -147 90 -200 150 -136
340 -94 435 96 43 87 46 148 11 224 -34 73 -77 117 -146 148 l-60 27 0 713 0
714 24 6 c26 6 93 81 121 136 10 19 20 61 22 95 4 52 1 67 -24 115 -31 58 -81
100 -119 100 l-24 0 0 458 0 457 32 15 c41 19 114 125 123 179 9 54 -17 141
-56 185 -61 70 -184 93 -270 52 -41 -19 -27 -25 -219 87 -129 75 -484 275
-580 326 l-85 46 -6 60 c-8 84 -24 126 -62 163 -68 66 -171 81 -262 38z m145
-119 c27 -20 50 -60 50 -84 0 -13 -15 -40 -33 -60 -26 -27 -42 -36 -66 -36
-61 0 -112 84 -87 142 18 42 102 65 136 38z m-159 -274 c31 -37 119 -54 171
-34 13 5 34 19 47 32 l24 22 61 -33 c170 -92 505 -283 738 -421 l57 -34 1 -71
c0 -67 3 -76 40 -132 29 -44 50 -64 74 -72 l34 -11 7 -236 c6 -174 2 -651 -4
-680 -1 -2 -10 -3 -21 -3 -11 0 -41 -19 -65 -41 -70 -65 -87 -143 -60 -275 7
-30 6 -31 -82 -72 -48 -24 -114 -58 -145 -77 l-58 -34 0 47 c-1 26 -1 294 0
595 0 526 1 550 20 587 12 24 20 59 20 91 0 44 -4 55 -30 79 -16 15 -51 33
-77 40 -73 20 -110 41 -347 198 -120 80 -232 148 -250 152 -54 11 -93 -6 -234
-98 -76 -49 -171 -111 -212 -137 -41 -27 -95 -63 -119 -82 -31 -23 -55 -33
-79 -33 -69 0 -142 -78 -142 -151 0 -19 9 -49 20 -67 19 -31 20 -50 20 -601 0
-313 -3 -576 -6 -585 -10 -27 -47 -18 -165 39 -63 30 -120 55 -127 55 -8 0
-11 7 -8 18 30 100 33 191 7 247 -22 49 -82 104 -122 112 l-29 6 0 453 0 454
25 0 c32 0 88 50 123 109 23 39 27 57 25 111 -1 65 -1 66 35 90 133 87 781
458 803 459 9 1 23 -6 30 -16z m-1032 -478 c38 -43 38 -59 6 -108 -44 -64
-104 -59 -152 12 -30 45 -29 67 6 102 44 43 98 41 140 -6z m2420 9 c44 -37 43
-84 -3 -130 -51 -51 -97 -45 -139 16 -61 89 58 185 142 114z m-1164 -142 c55
-32 157 -97 228 -145 70 -48 131 -87 137 -87 5 0 12 -17 16 -37 9 -49 22 -73
50 -96 l23 -17 -4 -642 -3 -641 -63 -32 c-79 -38 -229 -126 -265 -154 l-27
-22 -26 25 c-30 28 -83 56 -106 56 -13 0 -15 51 -15 454 0 249 3 474 6 499 5
38 11 48 33 55 36 13 97 76 121 127 29 59 27 148 -3 206 -81 153 -334 155
-423 4 -38 -66 -44 -153 -14 -223 26 -60 79 -112 115 -112 l25 0 0 -498 0
-499 -42 -13 c-24 -7 -55 -21 -70 -31 -14 -11 -30 -19 -36 -19 -5 0 -63 27
-129 60 -117 58 -120 60 -115 89 6 42 -15 98 -53 140 l-32 36 -5 559 -5 559
43 87 44 87 107 67 c197 122 358 216 373 216 8 0 60 -26 115 -58z m-44 -491
c42 -42 40 -92 -5 -137 -52 -52 -119 -45 -151 16 -21 40 -19 72 6 104 42 54
106 61 150 17z m-1220 -710 c41 -41 40 -88 -3 -137 -29 -33 -35 -36 -72 -31
-95 13 -116 122 -36 184 28 23 79 15 111 -16z m2404 15 c56 -24 72 -85 37
-139 -43 -64 -84 -72 -131 -25 -24 25 -31 40 -31 73 0 45 21 82 54 95 29 12
32 12 71 -4z m-1825 -486 c0 -5 -4 -10 -10 -10 -5 0 -10 5 -10 10 0 6 5 10 10
10 6 0 10 -4 10 -10z m625 -269 c74 -42 83 -135 20 -198 -28 -28 -40 -33 -82
-33 -55 0 -86 17 -108 61 -20 38 -23 111 -6 143 30 55 107 67 176 27z m-607
-904 c32 -29 50 -72 44 -104 -2 -13 -19 -40 -37 -59 -27 -28 -39 -34 -75 -34
-79 0 -130 90 -94 166 31 64 110 80 162 31z m1206 12 c56 -44 71 -111 37 -163
-51 -77 -147 -72 -185 9 -28 57 -8 122 47 155 41 25 68 25 101 -1z m621 -253
c40 -17 90 -82 99 -131 8 -43 -10 -80 -59 -124 -64 -56 -153 -38 -200 42 -50
86 -19 176 75 219 24 11 48 9 85 -6z m-2433 -55 c27 -24 32 -36 36 -89 4 -60
3 -63 -31 -97 -39 -39 -78 -45 -125 -21 -57 30 -77 74 -62 141 20 90 116 125
182 66z m1205 -798 c48 -22 75 -68 70 -115 -10 -75 -84 -137 -148 -123 -55 12
-110 110 -95 170 4 15 20 40 36 56 34 34 82 38 137 12z"/>
<path d="M2679 7237 c-57 -21 -97 -54 -126 -105 -24 -40 -28 -58 -28 -122 0
-100 26 -153 108 -217 27 -21 27 -23 30 -145 1 -67 1 -316 -1 -553 l-3 -430
-44 -28 c-75 -48 -120 -172 -96 -264 17 -63 70 -134 120 -162 59 -32 140 -33
204 -2 111 54 172 224 118 330 -23 45 -91 108 -125 117 -40 10 -41 47 -28 821
l4 291 49 32 c39 25 55 45 85 105 33 66 36 81 31 129 -6 62 -23 100 -63 140
-63 62 -164 89 -235 63z m94 -131 c41 -17 63 -43 72 -84 6 -28 2 -37 -28 -67
-45 -45 -91 -48 -130 -7 -38 40 -38 99 2 141 33 35 39 36 84 17z m34 -1598
c23 -22 39 -85 28 -117 -8 -27 -68 -53 -102 -45 -49 12 -73 42 -73 92 0 37 6
50 34 78 31 31 37 33 63 23 15 -5 38 -20 50 -31z"/>
<path d="M7330 7235 c-68 -31 -114 -92 -129 -171 -19 -102 31 -214 113 -253
l46 -23 0 -552 0 -553 -26 -14 c-14 -7 -48 -37 -74 -66 -70 -76 -88 -167 -50
-251 31 -69 69 -110 126 -138 66 -32 128 -33 190 -3 79 38 154 149 154 229 0
88 -77 211 -141 225 l-29 7 0 551 0 552 46 45 c25 24 57 67 72 95 53 104 24
236 -67 300 -37 26 -53 30 -119 33 -53 1 -88 -3 -112 -13z m126 -121 c65 -31
81 -109 32 -161 -33 -35 -82 -31 -124 11 -48 48 -43 95 14 143 32 27 34 28 78
7z m39 -1589 c29 -30 35 -43 35 -80 0 -35 -6 -49 -31 -74 -40 -40 -77 -41
-118 -2 -26 25 -31 36 -31 76 0 40 5 52 34 81 43 43 67 43 111 -1z"/>
<path d="M8342 6990 c-33 -21 -62 -71 -62 -110 0 -36 37 -97 67 -108 59 -22
73 -23 117 -3 48 21 76 60 76 106 0 72 -61 135 -130 135 -19 0 -50 -9 -68 -20z
m104 -85 c8 -33 -12 -57 -45 -53 -50 6 -36 78 15 78 17 0 25 -7 30 -25z"/>
<path d="M1904 6745 c-16 -11 -16 -17 -6 -39 14 -31 56 -36 71 -7 19 34 -32
71 -65 46z"/>
<path d="M2354 6575 c-9 -23 5 -35 42 -35 27 0 34 4 34 19 0 31 -65 45 -76 16z"/>
<path d="M7710 6557 c0 -32 0 -32 45 -29 42 4 45 6 45 33 0 28 -2 29 -45 29
-44 0 -45 -1 -45 -33z"/>
<path d="M1342 6358 c-7 -7 -12 -26 -12 -43 0 -55 25 -63 148 -49 l52 7 0 48
0 49 -88 0 c-55 0 -92 -4 -100 -12z"/>
<path d="M7694 6347 c-3 -8 -4 -29 -2 -47 3 -31 4 -32 61 -34 l57 -3 0 44 c0
39 -2 43 -24 43 -13 0 -37 3 -55 6 -22 5 -32 2 -37 -9z"/>
<path d="M7930 6316 l0 -44 55 -4 c52 -3 55 -2 60 24 11 47 -9 68 -65 68 l-50
0 0 -44z"/>
<path d="M8177 6353 c-14 -4 -17 -13 -15 -46 l3 -41 55 1 55 1 0 43 0 44 -40
2 c-22 0 -48 -1 -58 -4z"/>
<path d="M8413 6353 c-18 -3 -23 -11 -23 -36 0 -49 9 -55 68 -50 51 5 52 6 52
37 0 51 -24 63 -97 49z"/>
<path d="M1646 6342 c-3 -5 -2 -22 3 -38 7 -26 11 -29 52 -29 44 0 44 0 44 35
0 35 -1 35 -47 38 -25 2 -49 -1 -52 -6z"/>
<path d="M1875 6339 c-12 -19 4 -57 27 -63 48 -12 65 -7 71 22 3 15 1 33 -5
40 -13 15 -84 16 -93 1z"/>
<path d="M2110 6311 l0 -41 51 0 50 0 -3 38 c-3 37 -3 37 -50 40 l-48 3 0 -40z"/>
<path d="M2342 6313 l3 -38 58 -3 58 -3 -3 38 -3 38 -58 3 -58 3 3 -38z"/>
<path d="M1056 6175 c-82 -76 -52 -208 51 -222 68 -9 140 41 145 102 4 55 -4
79 -36 111 -30 30 -41 34 -84 34 -38 0 -55 -5 -76 -25z m110 -70 c14 -21 15
-31 5 -51 -9 -21 -17 -25 -43 -22 -43 4 -61 47 -33 78 25 27 51 25 71 -5z"/>
<path d="M8979 6175 c-39 -21 -59 -59 -59 -111 0 -39 5 -51 34 -80 49 -49 95
-48 147 5 31 31 39 46 39 75 0 97 -83 154 -161 111z m86 -100 c0 -16 -8 -33
-18 -39 -15 -9 -22 -7 -38 13 -23 28 -24 45 -3 66 14 14 19 14 38 2 13 -9 21
-25 21 -42z"/>
<path d="M2126 6093 c-26 -4 -28 -7 -22 -35 3 -17 6 -34 6 -39 0 -5 22 -9 49
-9 35 0 51 4 55 16 9 22 -4 64 -19 64 -7 0 -19 2 -27 3 -7 2 -26 2 -42 0z"/>
<path d="M7697 6093 c-4 -3 -7 -24 -7 -45 l0 -38 60 0 60 0 0 45 0 45 -53 0
c-30 0 -57 -3 -60 -7z"/>
<path d="M7930 6055 l0 -45 55 0 c49 0 55 2 61 24 12 51 3 61 -59 64 l-57 3 0
-46z"/>
<path d="M8156 6069 c-14 -70 -12 -72 54 -67 33 2 61 6 64 9 2 2 7 23 11 47
l7 42 -65 0 c-64 0 -65 0 -71 -31z"/>
<path d="M8397 6093 c-4 -3 -7 -26 -7 -50 l0 -43 60 0 60 0 0 50 0 50 -53 0
c-30 0 -57 -3 -60 -7z"/>
<path d="M1650 6070 c-17 -32 4 -60 45 -60 33 0 35 2 35 34 0 26 -5 35 -22 40
-37 9 -47 7 -58 -14z"/>
<path d="M1870 6056 c0 -37 12 -46 65 -46 29 0 33 4 37 30 6 39 -7 50 -59 50
-42 0 -43 -1 -43 -34z"/>
<path d="M2342 6053 l3 -38 51 -3 c48 -3 52 -1 58 22 11 45 -1 56 -61 56 l-54
0 3 -37z"/>
<path d="M8634 6076 c-3 -8 -4 -25 -2 -38 3 -20 9 -23 56 -26 58 -3 69 7 58
53 -6 23 -11 25 -57 25 -34 0 -51 -5 -55 -14z"/>
<path d="M1400 5811 c-31 -9 -40 -49 -14 -68 22 -16 96 -17 112 -1 13 13 16
54 5 61 -17 10 -80 15 -103 8z"/>
<path d="M7682 5778 l3 -43 68 -3 67 -3 0 30 c0 56 -7 61 -77 61 l-64 0 3 -42z"/>
<path d="M7920 5775 l0 -45 59 0 c67 0 80 14 62 64 -10 24 -15 26 -66 26 l-55
0 0 -45z"/>
<path d="M8156 5805 c-3 -9 -6 -29 -6 -45 0 -27 2 -28 60 -32 55 -3 61 -1 66
18 3 12 4 33 2 45 -3 22 -9 24 -59 27 -45 2 -58 0 -63 -13z"/>
<path d="M8393 5813 c-8 -2 -13 -22 -13 -44 l0 -39 43 0 c23 0 52 -3 65 -6 20
-6 22 -3 22 29 0 59 -7 67 -59 66 -25 0 -52 -3 -58 -6z"/>
<path d="M8623 5810 c-23 -9 -28 -27 -17 -67 5 -19 14 -22 70 -25 l64 -3 6 34
c4 19 2 41 -3 50 -12 19 -86 25 -120 11z"/>
<path d="M8878 5813 c-24 -4 -28 -9 -28 -36 0 -47 9 -54 69 -52 59 2 74 15 64
55 -10 39 -27 45 -105 33z"/>
<path d="M1860 5781 c0 -37 22 -51 80 -51 l41 0 -3 38 -3 37 -57 3 -58 3 0
-30z"/>
<path d="M2110 5776 c0 -39 20 -51 76 -44 26 3 29 7 29 38 l0 35 -52 3 -53 3
0 -35z"/>
<path d="M2340 5776 c0 -30 4 -34 31 -40 70 -14 79 -10 79 34 l0 40 -55 0 -55
0 0 -34z"/>
<path d="M1878 5519 c-27 -15 -22 -48 9 -60 43 -16 77 -8 81 20 6 42 -47 65
-90 40z"/>
<path d="M2100 5496 c0 -36 15 -46 72 -46 31 0 45 28 28 60 -8 15 -21 20 -55
20 -44 0 -45 0 -45 -34z"/>
<path d="M7920 5506 c0 -48 9 -56 62 -56 l49 0 -3 38 -3 37 -52 3 c-50 3 -53
2 -53 -22z"/>
<path d="M8150 5495 c0 -42 27 -60 76 -50 29 5 34 10 34 35 0 35 -23 50 -74
50 -34 0 -36 -2 -36 -35z"/>
<path d="M8400 5511 c-20 -38 15 -70 60 -56 29 9 28 61 -2 69 -37 9 -47 7 -58
-13z"/>
<path d="M8630 5515 c-10 -12 -10 -21 -1 -41 9 -21 17 -25 44 -22 27 3 33 7
35 32 5 43 -50 65 -78 31z"/>
<path d="M1622 5488 c3 -32 4 -33 56 -36 l52 -3 0 35 0 36 -56 0 -55 0 3 -32z"/>
<path d="M1421 5491 c-12 -22 -5 -31 25 -31 30 0 38 15 18 34 -20 21 -31 20
-43 -3z"/>
<path d="M2370 5490 c-12 -8 -12 -10 3 -16 21 -8 35 2 21 16 -5 5 -15 6 -24 0z"/>
<path d="M1634 5296 c-40 -18 -72 -59 -80 -104 -13 -66 51 -142 119 -142 122
0 170 176 65 240 -38 23 -61 24 -104 6z m64 -82 c29 -20 29 -62 0 -73 -44 -16
-75 19 -58 64 11 29 26 31 58 9z"/>
<path d="M7857 5243 c-14 -13 -6 -54 13 -73 24 -24 82 -27 100 -5 18 22 4 64
-26 75 -29 11 -78 13 -87 3z"/>
<path d="M8377 5232 c-36 -40 -7 -102 48 -102 55 0 86 67 49 104 -21 22 -77
20 -97 -2z"/>
<path d="M2316 5224 c-21 -21 -20 -40 4 -64 24 -24 29 -24 58 -4 27 19 29 60
3 74 -27 14 -47 13 -65 -6z"/>
<path d="M2094 5205 c-11 -42 1 -55 51 -55 43 0 45 1 45 28 0 37 -17 52 -57
52 -26 0 -34 -5 -39 -25z"/>
<path d="M8142 5222 c-8 -5 -12 -22 -10 -38 2 -24 8 -30 32 -32 15 -2 39 -1
53 3 20 5 24 11 21 38 -3 30 -6 32 -43 35 -22 1 -46 -2 -53 -6z"/>
<path d="M1904 5206 c-13 -33 0 -51 36 -51 32 0 35 2 35 30 0 27 -4 30 -33 33
-22 2 -34 -2 -38 -12z"/>
<path d="M8634 5206 c-9 -23 -1 -48 19 -60 25 -16 52 4 52 40 0 25 -4 29 -33
32 -22 2 -34 -2 -38 -12z"/>
<path d="M7375 5039 c-125 -69 -172 -170 -126 -275 38 -86 104 -134 182 -134
121 0 231 142 199 259 -28 104 -177 192 -255 150z m88 -139 c14 -11 28 -34 32
-51 14 -63 -74 -108 -109 -57 -24 34 -20 75 10 103 32 30 35 30 67 5z"/>
<path d="M2645 5006 c-57 -35 -87 -93 -88 -170 -1 -71 19 -113 78 -165 56 -49
141 -54 209 -12 40 25 94 121 102 183 4 33 0 53 -18 88 -47 91 -193 130 -283
76z m146 -114 c30 -25 30 -74 -1 -107 -30 -32 -44 -31 -77 1 -21 21 -24 32
-19 62 9 59 53 79 97 44z"/>
<path d="M5600 3750 c-127 -60 -159 -168 -90 -305 43 -86 88 -123 156 -131 42
-5 58 -2 114 28 58 30 68 40 97 97 51 97 41 205 -23 262 -70 61 -182 83 -254
49z m148 -136 c41 -28 24 -116 -28 -144 -27 -15 -66 6 -85 45 -19 42 -19 65 1
93 18 27 78 30 112 6z"/>
<path d="M4353 3730 c-87 -50 -123 -126 -103 -217 41 -183 210 -257 338 -148
65 56 103 168 82 244 -35 130 -195 191 -317 121z m162 -126 c40 -43 32 -82
-21 -114 -37 -24 -61 -18 -88 22 -22 31 -20 68 6 95 29 31 72 30 103 -3z"/>
<path d="M4238 1973 c7 -3 16 -2 19 1 4 3 -2 6 -13 5 -11 0 -14 -3 -6 -6z"/>
<path d="M6120 1953 c0 -5 41 -10 93 -12 100 -2 152 -9 180 -23 9 -5 17 -6 17
-3 0 3 -15 12 -34 20 -41 17 -256 33 -256 18z"/>
<path d="M3807 1935 c-48 -17 -54 -22 -38 -38 10 -9 12 -9 9 2 -3 14 27 26 92
37 19 3 37 8 39 10 10 10 -68 2 -102 -11z"/>
<path d="M6063 1943 c9 -2 23 -2 30 0 6 3 -1 5 -18 5 -16 0 -22 -2 -12 -5z"/>
<path d="M3780 1880 c-13 -8 -12 -10 3 -10 9 0 17 5 17 10 0 12 -1 12 -20 0z"/>
</g>
</svg>
